# xmcd
#
# Track frame offsets: 
#        150
#        19912
#        41704
#        60552
#        90102
#        108638
#        133983
#        159283
#        175521
#        197372
#        213781
#        226119
#        239752
#
# Disc length: 3770 seconds
#
# Revision: 0
# Processed by: cddbd v1.5.1PL0 Copyright (c) Steve Scherf et al.
# Submitted via: ExactAudioCopy v0.90b4
#
DISCID=a00eb80d
DTITLE=Mungo Jerry - Adults Only
DYEAR=2004
DGENRE=Rock and Roll
TTITLE0=Statesbro' Blues
TTITLE1=Morning Dew
TTITLE2=With A Girl Like You
TTITLE3=Going Down Slow
TTITLE4=One Bourbon, One Scotch, One Beer
TTITLE5=I Can't Wait Until Tomorrow
TTITLE6=She Loves Me Like A Woman
TTITLE7=We Gotta Get Out o' The Army
TTITLE8=All I Wanna Do
TTITLE9=Rock Me Mama
TTITLE10=St. Pete Florida Blues
TTITLE11=I Just Can't Say Goodbye
TTITLE12=Open Up
EXTD=
EXTT0=
EXTT1=
EXTT2=
EXTT3=
EXTT4=
EXTT5=
EXTT6=
EXTT7=
EXTT8=
EXTT9=
EXTT10=
EXTT11=
EXTT12=
PLAYORDER=
